<svg width="285" height="84" viewBox="0 0 285 84" fill="none" xmlns="http://www.w3.org/2000/svg">
<path d="M77.7812 10.2695C80.7891 10.2695 83.1393 11.3503 84.832 13.5117C86.3164 15.4128 87.0586 17.5547 87.0586 19.9375C87.0586 20.3672 87.0326 20.875 86.9805 21.4609C86.668 24.3646 85.2161 26.7669 82.625 28.668L87.3906 38.9805H81.2188L77.1367 30.4453H73.6016V39.0391H68.1914L68.2109 10.2695H77.7812ZM77 24.9375L78.6016 24.7422C79.513 24.4948 80.2747 23.9805 80.8867 23.1992C81.4076 22.431 81.7201 21.513 81.8242 20.4453C81.8763 19.1172 81.4857 17.9583 80.6523 16.9688C79.9492 16.1615 78.9271 15.7057 77.5859 15.6016H73.6602V24.9375H77ZM100.965 10.0156C104.116 10.4974 106.447 12.3594 107.957 15.6016C109.246 17.9974 109.891 20.9401 109.891 24.4297V24.7812C109.891 29.1432 108.829 32.8542 106.707 35.9141C105.197 37.9714 103.061 39.1237 100.301 39.3711C100.014 39.3971 99.7344 39.4102 99.4609 39.4102C96.5964 39.4102 94.194 38.1992 92.2539 35.7773C90.2487 32.5482 89.2331 29.2344 89.207 25.8359C89.194 25.5495 89.1875 25.263 89.1875 24.9766C89.1875 20.3802 90.2096 16.5781 92.2539 13.5703C93.6211 11.9297 95.0469 10.8815 96.5312 10.4258C97.5599 10.1003 98.5885 9.9375 99.6172 9.9375C100.073 9.9375 100.522 9.96354 100.965 10.0156ZM99.4609 34.4102C100.971 34.332 102.247 33.2969 103.289 31.3047C104.044 29.9766 104.52 28.0234 104.715 25.4453C104.754 22.1641 104.174 19.4753 102.977 17.3789C102 15.9206 100.919 15.1068 99.7344 14.9375C98.1719 15.0156 96.8698 16.0378 95.8281 18.0039C95.0859 19.3841 94.6042 21.3633 94.3828 23.9414C94.3568 27.2227 94.9492 29.9049 96.1602 31.9883C97.1237 33.4466 98.224 34.2539 99.4609 34.4102ZM126.082 10.3281L133.465 38.9414H127.859L126.629 34.0781H118.719L117.469 38.9414H111.805L119.109 10.3281H126.082ZM119.793 28.6289H125.438L122.703 17.457L119.793 28.6289ZM147.293 10.2695C149.168 10.4909 150.757 11.2396 152.059 12.5156C153.374 13.7917 154.324 15.3021 154.91 17.0469C155.184 17.8151 155.385 18.8242 155.516 20.0742V28.8633C155.32 31.832 154.383 34.2279 152.703 36.0508C151.036 37.8737 149.005 38.8438 146.609 38.9609H135.281L135.301 10.2695H147.293ZM140.887 33.3164H145.457C146.382 33.1732 147.169 32.8346 147.82 32.3008C148.471 31.7539 149.025 30.8034 149.48 29.4492C149.728 28.6159 149.799 25.582 149.695 20.3477C149.083 17.6393 147.671 16.0833 145.457 15.6797H140.887V33.3164ZM175.008 10.3477V15.8555H169.285V39H163.973V15.7969H157.859V10.3477H175.008ZM186.766 10.2695C189.773 10.2695 192.124 11.3503 193.816 13.5117C195.301 15.4128 196.043 17.5547 196.043 19.9375C196.043 20.3672 196.017 20.875 195.965 21.4609C195.652 24.3646 194.201 26.7669 191.609 28.668L196.375 38.9805H190.203L186.121 30.4453H182.586V39.0391H177.176L177.195 10.2695H186.766ZM185.984 24.9375L187.586 24.7422C188.497 24.4948 189.259 23.9805 189.871 23.1992C190.392 22.431 190.704 21.513 190.809 20.4453C190.861 19.1172 190.47 17.9583 189.637 16.9688C188.934 16.1615 187.911 15.7057 186.57 15.6016H182.645V24.9375H185.984ZM204.246 10.3672V39H198.816V10.3672H204.246ZM218.387 10.3281C220.053 10.5104 221.525 11.1094 222.801 12.125C224.09 13.1406 225.014 14.2865 225.574 15.5625C226.277 16.9297 226.629 18.3945 226.629 19.957C226.629 20.6862 226.622 21.1615 226.609 21.3828C226.505 23.1797 226.134 24.6771 225.496 25.875C224.858 27.0729 224.161 27.9909 223.406 28.6289C221.766 30.1263 220.04 30.888 218.23 30.9141H212.801V38.9414H207.449V10.3281H218.387ZM212.879 25.2109H217.293C217.97 25.1328 218.53 24.9635 218.973 24.7031C220.171 23.987 220.887 22.7435 221.121 20.9727C221.16 19.3711 220.835 18.1536 220.145 17.3203C219.454 16.487 218.536 16.0117 217.391 15.8945H212.879V25.2109ZM79.3633 48.3281C81.0299 48.5104 82.5013 49.1094 83.7773 50.125C85.0664 51.1406 85.9909 52.2865 86.5508 53.5625C87.2539 54.9297 87.6055 56.3945 87.6055 57.957C87.6055 58.6862 87.599 59.1615 87.5859 59.3828C87.4818 61.1797 87.1107 62.6771 86.4727 63.875C85.8346 65.0729 85.138 65.9909 84.3828 66.6289C82.7422 68.1263 81.0169 68.888 79.207 68.9141H73.7773V76.9414H68.4258V48.3281H79.3633ZM73.8555 63.2109H78.2695C78.9466 63.1328 79.5065 62.9635 79.9492 62.7031C81.1471 61.987 81.8633 60.7435 82.0977 58.9727C82.1367 57.3711 81.8112 56.1536 81.1211 55.3203C80.431 54.487 79.513 54.0117 78.3672 53.8945H73.8555V63.2109ZM95.457 48.3281L95.4766 71.8828H106.551L106.531 77H90.0469V48.3281H95.457ZM122.449 48.3281L129.832 76.9414H124.227L122.996 72.0781H115.086L113.836 76.9414H108.172L115.477 48.3281H122.449ZM116.16 66.6289H121.805L119.07 55.457L116.16 66.6289ZM138.934 48.3281L146.121 63.6016V48.3281H151.434L151.453 77H146.238L137.508 58.9336L137.488 77.0195H132.117V48.3281H138.934ZM161.395 48.3281L168.582 63.6016V48.3281H173.895L173.914 77H168.699L159.969 58.9336L159.949 77.0195H154.578V48.3281H161.395ZM193.973 48.3867V53.6211H182.137V59.8711H190.809V65.1641H182.137V71.707H194.48V77H176.629L176.648 48.3867H193.973ZM206.297 48.2695C209.305 48.2695 211.655 49.3503 213.348 51.5117C214.832 53.4128 215.574 55.5547 215.574 57.9375C215.574 58.3672 215.548 58.875 215.496 59.4609C215.184 62.3646 213.732 64.7669 211.141 66.668L215.906 76.9805H209.734L205.652 68.4453H202.117V77.0391H196.707L196.727 48.2695H206.297ZM205.516 62.9375L207.117 62.7422C208.029 62.4948 208.79 61.9805 209.402 61.1992C209.923 60.431 210.236 59.513 210.34 58.4453C210.392 57.1172 210.001 55.9583 209.168 54.9688C208.465 54.1615 207.443 53.7057 206.102 53.6016H202.176V62.9375H205.516Z" fill="#0F222B"/>
<g clip-path="url(#clip0_162_5885)">
<path d="M57.9898 29.3594C58.0132 28.6288 57.9963 27.8974 57.9391 27.1687C57.5638 22.2839 56.3491 17.4801 53.76 13.2732C50.2555 7.58908 44.5675 3.60738 38.2355 1.64943C36.9105 1.21046 35.5469 0.897077 34.1629 0.71345C30.5291 0.308704 27.2223 -0.298416 23.5124 0.174631C15.5244 1.19915 8.72581 5.6893 4.33372 12.3954C-0.139525 19.2255 -0.829277 25.6433 0.811419 33.3916C1.71925 37.6921 3.16215 41.8559 4.85357 45.9008C5.97188 48.5772 7.21191 51.2131 8.53309 53.7858C9.2127 55.1113 12.0173 62.1666 13.3512 62.4271L21.7322 64.0638L30.1005 65.703C37.9617 59.7963 45.6098 53.2014 51.4651 45.2583C55.0026 40.4418 57.8174 35.2737 57.9898 29.3594Z" fill="#4C867C"/>
<path d="M34.1629 0.713379C34.1629 0.713379 13.3157 4.73048 11.3403 22.2939C9.36484 39.8574 17.0333 63.1303 17.0333 63.1303L19.8734 63.6868C19.8734 63.6868 21.1185 25.8228 24.8031 17.5685C24.8031 17.5685 29.535 2.08193 34.1629 0.713379Z" fill="white"/>
<path d="M34.1629 0.713379C34.1629 0.713379 51.9468 12.2815 47.1313 29.2986C42.3157 46.3156 26.4083 64.9668 26.4083 64.9668L23.5681 64.4128C23.5681 64.4128 36.7419 28.8812 36.4502 19.8503C36.4502 19.8452 37.9286 3.72368 34.1629 0.713379Z" fill="white"/>
<path d="M12.73 68.1086L13.194 63.1227" stroke="#A87244" stroke-width="3.56" stroke-miterlimit="10"/>
<path d="M28.2494 71.1417L29.705 66.3505" stroke="#A87244" stroke-width="3.56" stroke-miterlimit="10"/>
<g style="mix-blend-mode:screen" opacity="0.63">
<path d="M24.8513 20.6066C18.0045 24.515 10.3969 24.0824 7.84076 19.6403C5.28462 15.1982 8.78156 8.43135 15.6309 4.52302C22.4802 0.614694 30.0979 1.0498 32.6439 5.49189C35.1899 9.93398 31.6981 16.6958 24.8513 20.6066Z" fill="#FFF9F8"/>
<path d="M8.30992 25.4813C7.87882 27.0699 6.32434 28.0337 4.83834 27.6315C3.35233 27.2293 2.50028 25.6078 2.93138 24.0242C3.36247 22.4406 4.91948 21.4743 6.40549 21.8765C7.8915 22.2787 8.74355 23.8927 8.30992 25.4813Z" fill="#FFF9F8"/>
</g>
<path d="M27.2274 79.9905L29.0254 70.8306L12.3749 67.58L10.4933 77.1547C10.4106 77.5541 10.413 77.9663 10.5003 78.3646C10.5877 78.763 10.7581 79.1385 11.0005 79.4669C12.4383 81.4906 16.2802 82.5024 18.1009 82.8692C18.6563 82.9831 19.024 83.0387 19.0772 83.0463C21.9503 83.6079 24.1489 83.36 25.6349 82.3102C26.4439 81.7689 27.0139 80.9386 27.2274 79.9905Z" fill="#7D5533"/>
<path d="M29.923 67.0766L12.4256 63.4946C12.2938 63.4686 12.1685 63.4169 12.057 63.3422C11.9454 63.2676 11.8498 63.1716 11.7757 63.0598C11.7016 62.948 11.6506 62.8227 11.6254 62.691C11.6003 62.5594 11.6017 62.4241 11.6294 62.293L11.7232 61.8427C11.7489 61.7105 11.8007 61.5847 11.8757 61.4727C11.9508 61.3608 12.0474 61.2648 12.1601 61.1906C12.2728 61.1164 12.3991 61.0654 12.5318 61.0405C12.6645 61.0157 12.8008 61.0175 12.9328 61.0459L30.4302 64.6329C30.5618 64.6591 30.6868 64.7111 30.7981 64.7859C30.9094 64.8606 31.0047 64.9567 31.0785 65.0684C31.1523 65.1802 31.2032 65.3054 31.2281 65.4369C31.2531 65.5684 31.2517 65.7036 31.2239 65.8345L31.1326 66.2848C31.1064 66.4166 31.0541 66.5418 30.9788 66.6532C30.9036 66.7646 30.8068 66.8599 30.6942 66.9336C30.5816 67.0073 30.4554 67.0579 30.323 67.0825C30.1906 67.107 30.0546 67.105 29.923 67.0766Z" fill="#007366"/>
<path d="M26.109 70.9242L23.4236 83.9621" stroke="#A87244" stroke-width="1.44" stroke-miterlimit="10"/>
<path d="M22.4497 70.1754L19.7643 83.2133" stroke="#A87244" stroke-width="1.44" stroke-miterlimit="10"/>
<path d="M18.7931 69.4266L16.1077 82.4645" stroke="#A87244" stroke-width="1.44" stroke-miterlimit="10"/>
<path d="M15.1364 68.6778L12.4509 81.7132" stroke="#A87244" stroke-width="1.44" stroke-miterlimit="10"/>
<path d="M27.2831 83.6636L9.02246 79.9196" stroke="#A87244" stroke-width="1.44" stroke-miterlimit="10"/>
<path d="M28.0337 80.0158L9.77307 76.2719" stroke="#A87244" stroke-width="1.44" stroke-miterlimit="10"/>
<path d="M28.7844 76.368L10.5262 72.6241" stroke="#A87244" stroke-width="1.44" stroke-miterlimit="10"/>
<path d="M29.5375 72.7177L11.2769 68.9763" stroke="#A87244" stroke-width="1.44" stroke-miterlimit="10"/>
<g style="mix-blend-mode:multiply" opacity="0.39">
<path d="M27.2274 79.9905L29.0253 70.8306L26.3728 70.3246L25.0567 77.0181C24.8475 77.9674 24.2811 78.8005 23.4743 79.3454C21.9959 80.3927 19.7898 80.6406 16.9166 80.079C16.8608 80.079 16.4957 80.0158 15.9403 79.9019C14.6166 79.6313 12.2228 79.0242 10.4629 77.9313C10.4984 78.4904 10.6918 79.028 11.0208 79.482C12.4586 81.5058 16.3004 82.5176 18.1212 82.8844C18.6765 82.9983 19.0442 83.0539 19.0975 83.0615C21.9706 83.6231 24.1692 83.3752 25.6552 82.3254C26.4597 81.7767 27.0225 80.941 27.2274 79.9905Z" fill="#634329"/>
</g>
<path d="M28.6779 72.6013L12.1137 69.1989C11.8229 69.1387 11.568 68.9658 11.405 68.7182C11.2419 68.4706 11.184 68.1686 11.2439 67.8785C11.2732 67.7347 11.3307 67.5981 11.413 67.4766C11.4953 67.355 11.6008 67.2508 11.7236 67.17C11.8463 67.0892 11.9838 67.0333 12.1282 67.0055C12.2726 66.9778 12.4211 66.9787 12.5651 67.0083L29.1293 70.4031C29.4202 70.4634 29.6753 70.6362 29.8388 70.8836C30.0022 71.1311 30.0608 71.4331 30.0016 71.7236C29.9728 71.8681 29.9157 72.0055 29.8335 72.128C29.7514 72.2504 29.6457 72.3554 29.5227 72.437C29.3997 72.5186 29.2617 72.5751 29.1167 72.6033C28.9718 72.6315 28.8226 72.6308 28.6779 72.6013Z" fill="#A87244"/>
</g>
<defs>
<clipPath id="clip0_162_5885">
<rect width="58" height="84" fill="white"/>
</clipPath>
</defs>
</svg>
