<svg width="52" height="52" viewBox="0 0 52 52" fill="none" xmlns="http://www.w3.org/2000/svg">
<g clip-path="url(#clip0_3_33)">
<path d="M52 26C52 30.9136 50.6367 35.5085 48.2664 39.4283C46.2477 42.7743 43.4933 45.625 40.2289 47.7647C40.0311 47.8939 39.83 48.0214 39.6289 48.1456C39.2007 48.4104 38.7626 48.6621 38.3163 48.9024C38.2509 48.9384 38.1855 48.9727 38.1201 49.007C37.1328 49.5301 36.1079 49.9894 35.0486 50.3817H35.047C32.7062 51.2513 30.2051 51.794 27.5995 51.951C27.1582 51.9787 26.7119 51.9935 26.2624 51.9984C26.2313 51.9984 26.1986 51.9984 26.1676 51.9984C26.112 51.9984 26.0564 51.9984 26.0008 51.9984H25.9763C25.8799 51.9984 25.785 51.9984 25.6902 51.9984C25.257 51.9935 24.8288 51.9771 24.4021 51.951C21.7867 51.7924 19.2758 51.2481 16.9252 50.3719C16.0131 50.0319 15.1255 49.6429 14.2673 49.2065C14.0695 49.1084 13.8749 49.007 13.6821 48.9024C13.2391 48.6638 12.8026 48.412 12.376 48.1489C12.1618 48.0165 11.951 47.8824 11.7401 47.7451C8.4904 45.6087 5.74581 42.7629 3.73192 39.4283C1.3633 35.5085 0 30.9136 0 26C0 11.6416 11.6404 0 26.0008 0C40.3613 0 52 11.6416 52 26Z" fill="#FF9D83"/>
<path d="M29.991 43.2042V37.5812H21.96V43.2042C21.96 43.2042 14.9914 44.1147 11.7401 47.7451C11.951 47.8824 12.1619 48.0165 12.376 48.1489C12.8026 48.4121 13.2391 48.6638 13.6821 48.9024C14.7217 49.4631 15.8055 49.9551 16.9252 50.3719C19.2759 51.2481 21.7867 51.7924 24.4021 51.951C24.8288 51.9771 25.2571 51.9935 25.6903 51.9984C25.7851 51.9984 25.8799 51.9984 25.9763 51.9984H26.0008C26.0875 51.9984 26.1757 51.9984 26.2624 51.9984C26.7119 51.9935 27.1582 51.9788 27.5995 51.951C30.2052 51.7941 32.7062 51.2514 35.047 50.3818H35.0487C36.1782 49.9633 37.2685 49.468 38.3163 48.9024C38.7626 48.6622 39.2007 48.4104 39.629 48.1456C39.83 48.0214 40.0311 47.8939 40.2289 47.7648C36.9857 44.118 29.991 43.2042 29.991 43.2042Z" fill="#FDDCAB"/>
<path d="M11.284 25.3069C11.5733 28.6235 13.6706 28.823 13.6706 28.823L13.7017 22.1832C13.7017 22.1832 10.9914 21.9887 11.284 25.3069Z" fill="#FDDCAB"/>
<path d="M26.0024 8.91513C19.1549 8.91513 13.6052 14.4662 13.6052 21.312L13.6052 28.532C13.6052 35.3794 19.1565 40.9288 26.0024 40.9288L26.0024 8.91513Z" fill="#FDDCAB"/>
<path d="M40.662 25.2072C40.3727 28.5238 38.2754 28.7233 38.2754 28.7233L38.2444 22.0835C38.2444 22.0835 40.9546 21.889 40.662 25.2072Z" fill="#FFEAD5"/>
<path d="M26.0024 8.91513L26.0024 40.9305C32.85 40.9305 38.3997 35.3794 38.3997 28.5336V21.3136C38.3997 14.4662 32.8484 8.91676 26.0024 8.91676V8.91513Z" fill="#FFEAD5"/>
<path d="M40.2288 47.7647L38.1201 49.007C37.1328 49.5301 36.1079 49.9894 35.0486 50.3817H35.047C32.7062 51.2513 30.2051 51.794 27.5995 51.9509C27.1581 51.9787 26.7119 51.9934 26.2624 51.9983C26.2313 51.9983 26.1986 51.9983 26.1675 51.9983V48.278H26.1724C26.228 48.278 26.2787 48.2731 26.3359 48.2731C31.0633 48.175 31.9215 43.4461 31.9215 43.4461C32.0474 43.4543 32.17 43.4657 32.291 43.4837C37.0838 44.2225 40.2288 47.7647 40.2288 47.7647Z" fill="#FF3932"/>
<path d="M26.1676 48.278V51.9983C26.112 51.9983 26.0564 51.9983 26.0008 51.9983H25.9763C25.8799 51.9983 25.7851 51.9983 25.6903 51.9983C25.2571 51.9934 24.8288 51.9771 24.4021 51.9509C21.7867 51.7924 19.2759 51.2481 16.9252 50.3719C16.0131 50.0319 15.1255 49.6429 14.2673 49.2064L11.7401 47.7451C11.7401 47.7451 14.7904 44.18 20.0458 43.4837C20.1684 43.4674 20.2877 43.4543 20.4152 43.4461C20.4152 43.4461 21.2734 48.175 25.9992 48.2731C26.0564 48.2731 26.1087 48.278 26.1643 48.278H26.1676Z" fill="#DB242D"/>
<path d="M24.1716 26.6538V23.6331C24.1716 23.5481 24.1046 23.4811 24.0294 23.4811H18.0629V26.6359C18.0629 27.4564 18.7282 28.1217 19.5488 28.1217H22.7037C23.5145 28.1217 24.1716 27.4646 24.1716 26.6538ZM25.1246 22.5281V26.6538C25.1246 27.9909 24.0409 29.0747 22.7037 29.0747H19.5586C18.2117 29.0747 17.1099 27.973 17.1099 26.6261V22.7292C17.1099 22.618 17.1998 22.5297 17.3094 22.5297H25.1246V22.5281Z" fill="#1F1F24"/>
<path d="M27.7891 26.8549V23.6331C27.7891 23.5481 27.8561 23.4811 27.9313 23.4811H33.8978V26.8353C33.8978 27.5463 33.3224 28.1217 32.6114 28.1217H29.056C28.3563 28.1217 27.7891 27.5545 27.7891 26.8549ZM26.8361 22.5281V26.8549C26.8361 28.0809 27.83 29.0747 29.056 29.0747H32.6015C33.839 29.0747 34.8508 28.0629 34.8508 26.8255V22.5281H26.8361Z" fill="#1F1F24"/>
<path d="M17.584 23.4811H14.6955L14.4078 22.5281H17.584V23.4811Z" fill="#1F1F24"/>
<path d="M34.3768 23.4811H37.2668L37.5529 22.5281H34.3768V23.4811Z" fill="#1F1F24"/>
<path d="M27.0633 22.5281H24.8974V23.4811H27.0633V22.5281Z" fill="#1F1F24"/>
<path d="M14.689 23.4876V19.9242C14.689 19.2425 14.8345 18.5969 15.0879 18.0084C22.7299 11.8182 28.273 23.4075 37.2211 19.1069C37.2669 19.3733 37.3028 19.643 37.3028 19.9225L37.2473 23.3748C38.0172 22.6098 38.5632 22.1243 39.2432 22.2371L39.6388 19.6185C39.7401 16.8854 38.707 14.2374 36.8337 12.2513C34.1234 9.37771 31.4132 8.44598 25.9943 8.44598C20.5754 8.44598 17.8635 9.37771 15.1549 12.2513C13.2816 14.239 12.2485 16.8854 12.3498 19.6185L12.7454 22.3336C13.4271 22.2224 14.1283 22.685 14.6858 23.4876H14.689Z" fill="#1F1F24"/>
</g>
<defs>
<clipPath id="clip0_3_33">
<rect width="52" height="52" fill="white"/>
</clipPath>
</defs>
</svg>
